<svg version="1.2" xmlns="http://www.w3.org/2000/svg" viewBox="0 0 721 279" width="721" height="279">
	<style>
		.s0 { fill: #ffffff } 
	</style>
	<path class="s0" d="m626.41 190.07l-0.23-130.72c0-16.25-13.11-29.35-29.35-29.35h-480.2c-16.16 0-29.34 13.1-29.34 29.35v97.13h-9.65v21.03h10.04c0.55 4.55 2.04 8.87 4.47 12.48h-14.51v16.71h123.58c0 23.15 18.75 41.9 41.9 41.9 23.15 0 41.9-18.75 41.9-41.9h196.94c0 23.15 18.75 41.9 41.9 41.9 23.15 0 41.9-18.75 41.9-41.9h77.6v-16.63zm-85.84-133.39h54.93v67.79h-54.93zm-132.68 0h117.7v67.79h-117.7zm-164.77 0h149.94v67.8h-149.94zm-141.71 0h126.88v67.79h-126.88z"/>
</svg>