<svg version="1.2" xmlns="http://www.w3.org/2000/svg" viewBox="0 0 288 35" width="288" height="35">
	<defs>
		<clipPath clipPathUnits="userSpaceOnUse" id="cp1">
			<path d="m98.97 26.6h-93.4l-2.9 6.5h93.3z"/>
		</clipPath>
		<linearGradient id="g1" x2="1" gradientUnits="userSpaceOnUse" gradientTransform="matrix(0,-6.518,96.571,0,50.778,33.073)">
			<stop offset="0" stop-color="#00501f"/>
			<stop offset=".28" stop-color="#00712d"/>
			<stop offset=".93" stop-color="#008e36"/>
			<stop offset="1" stop-color="#00501f"/>
		</linearGradient>
		<clipPath clipPathUnits="userSpaceOnUse" id="cp2">
			<path d="m285.57 26.6h-93.3l-3 6.5h93.3z"/>
		</clipPath>
		<linearGradient id="g2" x2="1" gradientUnits="userSpaceOnUse" gradientTransform="matrix(0,-6.518,96.571,0,237.433,33.073)">
			<stop offset="0" stop-color="#830b1d"/>
			<stop offset=".28" stop-color="#af0526"/>
			<stop offset=".93" stop-color="#dc002f"/>
			<stop offset="1" stop-color="#850b1d"/>
		</linearGradient>
	</defs>
	<style>
		.s0 { fill: #ffffff } 
		.s1 { fill: none;stroke: #000000;stroke-miterlimit:22.9256;stroke-width: .4 } 
		.s2 { fill: url(#g1) } 
		.s3 { fill: url(#g2) } 
	</style>
	<g id="g55">
		<path id="path9" fill-rule="evenodd" class="s0" d="m147.37 20h-6l0.2-4.5h-7.6l-3.8 4.5h-6.2l17.9-19.9h5.4zm-9.4-9.1h3.8l0.2-4.6zm-17.4 9.1h-5.8l9.1-19.9h5.8zm-3.4-15.5h-7.3c-1.7 0-3.2 0.6-4.4 1.7-0.9 0.9-1.8 2.2-2.7 4.1-0.2 0.4-0.4 0.9-0.8 1.7-0.3 0.8-0.5 1.4-0.5 1.9 0 1.1 0.9 1.7 2.7 1.7h7.9l-2.1 4.5h-7.4q-4.65 0-6.3-2.4c-0.5-0.7-0.8-1.6-0.8-2.7 0-1.3 0.4-2.9 1.3-4.8 3-6.7 7.8-10 14.3-10h7.9zm-20.2 0h-7.3c-1.7 0-3.2 0.6-4.4 1.7-0.9 0.9-1.8 2.2-2.7 4.1-0.2 0.4-0.4 0.9-0.8 1.7-0.3 0.8-0.5 1.4-0.5 1.9 0 1.1 0.9 1.7 2.7 1.7h7.9l-2.1 4.5h-7.4q-4.65 0-6.3-2.4c-0.5-0.7-0.8-1.6-0.8-2.7 0-1.3 0.4-2.9 1.3-4.8 3-6.7 7.8-10 14.3-10h7.9zm-21.5 0.1h-7.3c-2.3 0-4.1 1-5.5 3.1h11.3l-2.1 4.5h-11.5c-0.3 0.8-0.5 1.4-0.5 1.9 0 0.3 0.1 0.6 0.2 0.7 0.3 0.4 1.1 0.6 2.3 0.6h7.9l-2.1 4.5h-7.4q-4.65 0-6.3-2.4c-0.5-0.7-0.8-1.6-0.8-2.7 0-1.3 0.4-2.9 1.3-4.8 1.7-3.7 3.8-6.3 6.2-7.9q3.3-2.1 8.1-2.1h7.9zm-27.1 7.4l1.3 7.9h-6l-1.1-7.3h-3.8l-3.3 7.3h-5.6l9-19.8h10.7c3.9 0 5.8 1.2 5.8 3.5 0 0.9-0.3 1.9-0.8 3-1.3 2.8-3.4 4.6-6.2 5.4zm-1.4-7.3h-4.6l-1.6 3.4h4c1.2 0 2.1-0.1 2.6-0.3 0.7-0.3 1.2-0.8 1.6-1.7 0.3-0.6 0.3-0.9 0.2-1.1-0.3-0.2-1-0.3-2.2-0.3zm-13.8-0.1h-7.1c-2.6 0-4.6 1.1-6.1 3.3h11.7l-2 4.5h-11.8l-3.5 7.6h-5.7l4.3-9.4c1.1-2.4 2-4 2.7-5.1 1.2-1.7 2.7-3 4.4-3.9 2.1-1 4.7-1.5 7.9-1.5h7.4zm229.8 0.4h-6.2l-6.9 15h-5.8l6.9-15h-6.2l2-4.4h18.2zm-28.7 15h-5.7l-1.8-12-5.5 12h-5.5l8.9-19.5h6.2l1.7 11.3 5.2-11.3h5.4zm-16.6-15.1h-7.1q-3.3 0-5.4 3h11.1l-2 4.4h-11.3c-0.3 0.8-0.4 1.4-0.4 1.9 0 0.3 0.1 0.6 0.2 0.7 0.3 0.4 1.1 0.6 2.3 0.6h7.8l-2 4.4h-7.3c-3.1 0-5.1-0.8-6.2-2.3-0.5-0.7-0.7-1.6-0.7-2.6 0-1.3 0.4-2.9 1.2-4.7 1.7-3.6 3.7-6.2 6.1-7.8 2.1-1.4 4.8-2.1 8-2.1h7.8zm-20.4 0h-9.2c-2.8 0-5 1.8-6.7 5.5-0.7 1.5-1 2.6-1 3.5 0 0.4 0.1 0.7 0.2 0.9 0.3 0.5 1 0.7 2 0.7h4.2l1.4-3h-5.4l2.1-4.5h11l-5.5 12.1h-9.5c-1.3 0-2.4-0.1-3.1-0.3-2.5-0.6-3.7-2.1-3.7-4.5 0-1.4 0.4-3 1.3-4.9 3-6.6 7.7-9.8 14.1-9.8h9.8zm-29.4 7.3l1.2 7.8h-5.9l-1.1-7.1h-3.8l-3.3 7.1h-5.5l8.9-19.5h10.5c3.8 0 5.7 1.1 5.7 3.4 0 0.8-0.3 1.8-0.8 3-1 2.7-3.1 4.5-5.9 5.3zm-1.3-7.2h-4.5l-1.5 3.4h3.9c1.2 0 2.1-0.1 2.5-0.3 0.7-0.3 1.2-0.8 1.6-1.7 0.3-0.6 0.3-0.9 0.2-1-0.3-0.3-1-0.4-2.2-0.4zm117 5.5q-4.5 9.9-14.7 9.9c-4.9 0-7.4-1.7-7.4-5.2 0-1.5 0.5-3.2 1.4-5.2 1.5-3.2 3.3-5.6 5.5-7.2 2.4-1.8 5.5-2.6 9.1-2.6 5.1 0 7.6 1.6 7.6 4.9 0.1 1.3-0.5 3.2-1.5 5.4zm-7.4-6c-3.3 0-5.8 2-7.6 5.9-0.8 1.7-1.2 3-1.2 3.8 0 0.1 0 0.2 0 0.2 0.1 1 1.1 1.5 2.9 1.5 1.9 0 3.4-0.6 4.8-1.8 1.1-1 2-2.4 2.9-4.3 0.7-1.5 1-2.7 1-3.6 0-0.4-0.1-0.7-0.2-1-0.4-0.4-1.2-0.7-2.6-0.7z"/>
		<path id="polygon11" fill-rule="evenodd" class="s0" d="m4.97 25.6h282l-3.8 8.4h-282z"/>
		<path id="polygon13" fill-rule="evenodd" class="s1" d="m4.97 25.6h282l-3.8 8.4h-282z"/>
		<g id="g32">
			<g id="Clip-Path: rect30" clip-path="url(#cp1)">
				<path id="rect30" fill-rule="evenodd" class="s2" d="m2.67 26.6h96.3v6.5h-96.3z"/>
			</g>
		</g>
		<path id="polygon34" fill-rule="evenodd" class="s0" d="m192.27 26.6h-93.3l-3 6.5h93.3z"/>
		<g id="g53">
			<g id="Clip-Path: rect51" clip-path="url(#cp2)">
				<path id="rect51" fill-rule="evenodd" class="s3" d="m189.27 26.6h96.3v6.5h-96.3z"/>
			</g>
		</g>
	</g>
</svg>