<?xml version="1.0" encoding="UTF-8"?>
<svg id="Livello_1" data-name="Livello 1" xmlns="http://www.w3.org/2000/svg" viewBox="0 0 155.9 34.7">
  <defs>
    <style>
      .cls-1 {
        fill: #008ad8;
        stroke-width: 0px;
      }
    </style>
  </defs>
  <rect class="cls-1" x=".5" y="8.65" width="3.9" height="17.4"/>
  <path class="cls-1" d="M21.9,9.45c-1.3-.8-2.9-1.2-4.8-1.2s-3.4.4-4.7,1.2c-1.3.8-2.3,1.9-2.9,3.3-.7,1.3-1,2.9-1,4.6v8.8h3.9v-8.4c0-1,.2-2,.5-2.8.4-.8.9-1.5,1.6-2.1.7-.5,1.6-.8,2.6-.8,1.1,0,2,.3,2.7.8s1.2,1.2,1.6,2.1.5,1.8.5,2.8v8.4h3.9v-8.8c0-1.7-.3-3.2-1-4.5-.7-1.5-1.7-2.6-2.9-3.4"/>
  <path class="cls-1" d="M76.3,13.15s-.8-1.2-2.5-1.2-2.9,1.4-2.9,3.1v11.1h-3.9v-11.2c0-3.8,2.9-6.5,6.2-6.5,3.6,0,5.4,2.5,5.4,2.5l-2.3,2.2Z"/>
  <path class="cls-1" d="M49.4,15.65c.4-2.5,2.5-3.9,4.9-3.9,2.7,0,4.5,2,4.5,3.9h-9.4ZM54.3,8.15c-5.7,0-9,4.3-9,9.1v.1c0,4.7,3.4,9,9.2,9,4.2,0,6.4-2.7,7.5-3.8l-2.8-2c-.7.7-1.8,2.2-4.5,2.3h-.4c-2.7-.1-4.8-1.8-5.1-4.5h13.5v-1.5c.1-4.3-2.8-8.7-8.4-8.7"/>
  <path class="cls-1" d="M4.9,2.95c0,1.4-1.1,2.5-2.5,2.5S0,4.35,0,2.95,1.1.45,2.5.45s2.4,1.1,2.4,2.5"/>
  <path class="cls-1" d="M106.3,25.65l2.8,2.8c-3,3.6-7.4,5.8-12.4,5.8-9,0-16.3-7.6-16.3-16.9S87.7.45,96.7.45c5,0,9.5,2.3,12.4,5.9l-2.9,2.9c-2.3-2.9-5.7-4.8-9.6-4.8-6.8,0-12.4,5.8-12.4,12.9s5.5,12.9,12.4,12.9c4,0,7.4-1.8,9.7-4.6"/>
  <rect class="cls-1" x="113.1" y="8.65" width="3.9" height="17.4"/>
  <path class="cls-1" d="M155.9,8.65v15.8c0,5.7-3.3,9.8-9,9.8-3.5,0-6.1-1.5-8.1-3.4l2.6-2.6c1.3,1.4,3.1,2.4,5.4,2.4,3.2,0,5.2-2.3,5.2-6.1v-.7c-.9,1.3-2.4,2.5-5.1,2.5-5.7,0-7.9-4.1-7.9-8.6v-9h3.8v8.8c0,3.8,2.2,5.1,4.5,5.1,2.5,0,4.7-1.9,4.7-5.4v-8.6h3.9Z"/>
  <path class="cls-1" d="M43.1,24.35s-1.7,2.1-5.4,2.1-6-3-6-6.8v-7.6h-3.3v-3.5h3.3v-4.4h3.9v4.4h6.5v3.5h-6.5v7.5c0,2,1.1,3.3,3.1,3.3,1,0,1.9-.6,2.6-1.2l1.8,2.7Z"/>
  <path class="cls-1" d="M135.8,24.35s-1.7,2.1-5.4,2.1-6-3-6-6.8v-7.6h-3.3v-3.5h3.3v-4.4h3.9v4.4h6.5v3.5h-6.5v7.5c0,2,1.1,3.3,3.1,3.3,1,0,1.9-.6,2.6-1.2l1.8,2.7Z"/>
</svg>