<?xml version="1.0" encoding="UTF-8"?>
<svg id="Livello_1" data-name="Livello 1" xmlns="http://www.w3.org/2000/svg" viewBox="0 0 142.49 34.7">
  <defs>
    <style>
      .cls-1 {
        fill: #008ad8;
        stroke-width: 0px;
      }
    </style>
  </defs>
  <g>
    <rect class="cls-1" x=".6" y="6.58" width="3.13" height="13.96"/>
    <path class="cls-1" d="M17.77,7.22c-1.05-.64-2.33-.96-3.85-.96s-2.81.32-3.77.96c-1.05.64-1.77,1.52-2.33,2.57-.48,1.13-.8,2.33-.8,3.69v6.98h3.13v-6.74c0-.8.16-1.6.4-2.24s.72-1.21,1.28-1.69c.56-.4,1.28-.64,2.08-.64.88,0,1.6.16,2.16.64.56.4,1.05.96,1.28,1.69s.4,1.44.4,2.24v6.74h3.13v-7.06c0-1.36-.24-2.57-.8-3.61-.48-1.05-1.28-1.93-2.33-2.57"/>
    <path class="cls-1" d="M61.49,10.19s-.64-.96-2.01-.96c-1.44,0-2.24,1.13-2.24,2.41v8.82h-3.13v-8.99c0-3.13,2.33-5.22,4.97-5.22,2.89,0,4.25,2.01,4.25,2.01l-1.85,1.93h0Z"/>
    <path class="cls-1" d="M39.84,12.19c.24-2.01,1.93-3.13,3.85-3.13,2.16,0,3.61,1.6,3.61,3.13,0,0-7.46,0-7.46,0ZM43.77,6.25c-4.57,0-7.14,3.45-7.14,7.3v.08c0,3.77,2.73,7.22,7.38,7.22,3.45,0,5.14-2.08,6.02-3.13l-2.16-1.6c-.48.48-1.52,1.77-3.61,1.85h-.32c-2.16-.08-3.77-1.44-4.01-3.61h10.75v-1.21c0-3.45-2.33-6.9-6.9-6.9"/>
    <path class="cls-1" d="M4.13,2.01c0,1.13-.88,2.01-1.93,2.01S.2,3.13.2,2.01,1.08,0,2.13,0s2.01.88,2.01,2.01"/>
    <path class="cls-1" d="M34.86,19.18s-1.36,1.77-4.34,1.77-4.81-2.49-4.81-5.45v-6.17h-2.73v-2.81h2.73v-3.45h3.13v3.45h5.22v2.81h-5.22v6.02c0,1.6.88,2.65,2.49,2.65.8,0,1.6-.48,2.08-.96l1.44,2.16h0Z"/>
  </g>
  <g>
    <path class="cls-1" d="M91.94,25.52l2.84,2.84c-3.05,3.66-7.53,6-12.61,6-9.15,0-16.58-7.63-16.58-17.18S73.03,0,82.19,0C87.27,0,91.74,2.34,94.9,6.1l-2.84,2.84c-2.24-3.05-5.8-4.88-9.77-4.88-6.91,0-12.61,5.9-12.61,13.12s5.7,13.12,12.61,13.12c3.87.1,7.32-1.83,9.65-4.78"/>
    <rect class="cls-1" x="98.97" y="8.34" width="3.97" height="17.69"/>
    <path class="cls-1" d="M142.49,8.34v16.07c0,5.9-3.26,9.97-9.15,9.97-3.56,0-6.2-1.53-8.24-3.46l2.64-2.64c1.43,1.43,3.16,2.44,5.38,2.44,3.26,0,5.28-2.24,5.28-6.3v-.61c-.91,1.33-2.44,2.44-5.18,2.44-5.8,0-8.14-4.17-8.14-8.85v-9.05h3.97v8.95c0,3.97,2.24,5.18,4.57,5.18,2.54,0,4.78-1.93,4.78-5.38v-8.74h4.08Z"/>
    <path class="cls-1" d="M122.04,24.3s-1.73,2.24-5.5,2.24-6.1-3.05-6.1-6.91v-7.83h-3.36v-3.56h3.46V3.88h3.97v4.37h6.61v3.56h-6.61v7.63c0,2.03,1.11,3.36,3.16,3.36,1.01,0,2.03-.61,2.64-1.22l1.73,2.74h0Z"/>
  </g>
  <g>
    <path class="cls-1" d="M7.25,26.7c-.56-.37-1.4-.56-2.33-.56-.84,0-1.67.18-2.23.56-.56.37-1.11.93-1.4,1.58s-.47,1.4-.47,2.23v4.18h1.96v-4.09c0-.47.09-.93.28-1.4.18-.37.37-.74.74-.93.28-.18.74-.37,1.31-.37s.93.09,1.31.37c.28.18.56.56.74.93s.28.84.28,1.4v4h1.86v-4.29c0-.74-.18-1.58-.47-2.14-.47-.65-.84-1.11-1.58-1.49"/>
    <path class="cls-1" d="M38.05,29.39c.18-1.21,1.21-1.96,2.33-1.96,1.31,0,2.14.93,2.14,1.96,0,0-4.47,0-4.47,0ZM40.47,25.86c-2.7,0-4.29,2.05-4.29,4.38h0c0,2.23,1.67,4.38,4.47,4.38,2.05,0,3.16-1.31,3.72-1.86l-1.4-.93c-.28.28-.84,1.11-2.14,1.11h-.18c-1.31,0-2.33-.84-2.42-2.14h6.51v-.65c-.18-2.14-1.67-4.29-4.29-4.29"/>
    <path class="cls-1" d="M14.97,25.86c-2.42,0-4.38,2.05-4.38,4.38s1.96,4.38,4.38,4.38,4.38-2.05,4.38-4.38-1.96-4.38-4.38-4.38M14.97,33.03c-1.4,0-2.51-1.21-2.51-2.7s1.21-2.7,2.51-2.7c1.4,0,2.51,1.21,2.51,2.7.09,1.4-1.11,2.7-2.51,2.7"/>
    <path class="cls-1" d="M27.17,33.68s-.84,1.02-2.6,1.02-2.89-1.49-2.89-3.35v-3.72h-1.67v-1.58h1.67v-2.14h1.86v2.14h3.16v1.67h-3.16v3.63c0,.93.56,1.58,1.49,1.58.47,0,.93-.28,1.31-.56l.84,1.31Z"/>
    <path class="cls-1" d="M35.26,33.68s-.84,1.02-2.6,1.02-2.89-1.49-2.89-3.35v-3.72h-1.67v-1.58h1.67v-2.14h1.86v2.14h3.16v1.67h-3.16v3.63c0,.93.56,1.58,1.49,1.58.47,0,.93-.28,1.31-.56l.84,1.31Z"/>
  </g>
</svg>