<?xml version="1.0" encoding="UTF-8"?>
<svg id="Livello_1" xmlns="http://www.w3.org/2000/svg" version="1.1" viewBox="0 0 1233.5 577.1">
  <!-- Generator: Adobe Illustrator 29.5.1, SVG Export Plug-In . SVG Version: 2.1.0 Build 141)  -->
  <defs>
    <style>
      .st0 {
        fill: #3dae2b;
      }

      .st1 {
        fill: #93d500;
      }
    </style>
  </defs>
  <path class="st0" d="M272.3,537.4l-63.5-91.4h-99.9v39.4c0,50.4-41.1,91.4-91.4,91.4H0V106.8h203.3c125.4,0,204.1,65.2,204.1,170.6s-35.5,122.4-96.5,148.2l105.4,151.2h-69c-30,0-58-14.8-75.4-39.4h.4ZM197.8,195.2h-88.5v163.8h88.5c66.5,0,99.9-30.9,99.9-81.7s-33.4-81.7-99.9-81.7v-.4h0Z"/>
  <g>
    <path class="st1" d="M1233.9,0c-125.4,0-285.4,8.5-389.5,228.2-60.6,127.5-128.3,280.3-245.1,348.9h0c125.4,0,285.4-8.5,389.5-228.2C1049.3,221.4,1117.1,68.6,1233.9,0h0Z"/>
    <path class="st0" d="M693.2,144.8c-24.9-22.4-55.9-36.5-92.3-36.5h0c-36.5,0-67.3,13.9-92.3,36.5-100.7,97.8,35.5,270.6,92.3,341.3h0c56.8-71.1,193.1-243.4,92.3-341.3ZM600.8,287.1c-27.5,0-50-22.4-50-50s22.4-50,50-50,50,22.4,50,50-22.4,50-50,50Z"/>
  </g>
</svg>